<svg width="100" height="100" viewBox="0 0 100 100" fill="none" xmlns="http://www.w3.org/2000/svg">
<rect width="100" height="100" rx="15" fill="#160014"/>
<path d="M33.8004 81C32.7004 81 31.7754 80.625 31.0254 79.875C30.2754 79.125 29.9004 78.2 29.9004 77.1V26.325C29.9004 25.175 30.2754 24.25 31.0254 23.55C31.7754 22.8 32.7004 22.425 33.8004 22.425H51.7254C55.1254 22.425 58.1004 23.1 60.6504 24.45C63.2504 25.75 65.2754 27.575 66.7254 29.925C68.2254 32.275 68.9754 34.975 68.9754 38.025C68.9754 40.475 68.3004 42.7 66.9504 44.7C65.6504 46.65 63.8504 48.2 61.5504 49.35C64.8504 50.15 67.5004 51.725 69.5004 54.075C71.5004 56.425 72.5004 59.5 72.5004 63.3C72.5004 66.75 71.6754 69.8 70.0254 72.45C68.4254 75.1 66.1754 77.2 63.2754 78.75C60.3754 80.25 57.0504 81 53.3004 81H33.8004ZM37.7004 73.8H53.3004C55.6004 73.8 57.6254 73.4 59.3754 72.6C61.1254 71.8 62.5004 70.625 63.5004 69.075C64.5004 67.525 65.0004 65.6 65.0004 63.3C65.0004 61.15 64.5004 59.375 63.5004 57.975C62.5004 56.575 61.1254 55.525 59.3754 54.825C57.6254 54.075 55.6004 53.7 53.3004 53.7H37.7004V73.8ZM37.7004 46.5H51.7254C54.5754 46.5 56.9004 45.8 58.7004 44.4C60.5504 43 61.4754 40.875 61.4754 38.025C61.4754 35.175 60.5504 33.075 58.7004 31.725C56.9004 30.325 54.5754 29.625 51.7254 29.625H37.7004V46.5Z" fill="#F0F0F0"/>
</svg>
